{"title":"Rise.Of.The.Guardians.2012 (Pet Legendi SR.Sinhro).mkv","uid":11029404,"size":1768409062,"categoryP":"video","categoryS":"movies","magnet":"?xt=urn:btih:2d129cc5b630cf1e2716abc6996fe9a5d4a2f899&amp;dn=Rise.Of.The.Guardians.2012+%28Pet+Legendi+SR.Sinhro%29.mkv&amp;tr=udp%3A%2F%2Ftracker.openbittorrent.com%3A80&amp;tr=udp%3A%2F%2Fopen.demonii.com%3A1337&amp;tr=udp%3A%2F%2Ftracker.coppersurfer.tk%3A6969&amp;tr=udp%3A%2F%2Fexodus.desync.com%3A6969","seeders":2,"leechers":0,"uploader":"stzar","files":1,"time":1410702473,"description":"General\nFormat                         : Matroska\nFormat version                 : Version 4 / Version 2\nFile size                      : 1.65 GiB\nDuration                       : 1h 33mn\nOverall bit rate mode          : Variable\nOverall bit rate               : 2 530 Kbps\nEncoded date                   : UTC 2014-09-14 11:21:21\nWriting application            : mkvmerge v7.1.0 ('Good Love') 64bit\nWriting library                : libebml v1.3.0 + libmatroska v1.4.1\n\n\nVideo\nID                             : 1\nFormat                         : AVC\nFormat/Info                    : Advanced Video Codec\nFormat profile                 : &lt;a class=&quot;__cf_email__&quot; href=&quot;/cdn-cgi/l/email-protection&quot; data-cfemail=&quot;1b597a687e7772757e5b5728352a&quot;&gt;[email&amp;#160;protected]&lt;/a&gt;&lt;script cf-hash='f9e31' type=&quot;text/javascript&quot;&gt;\n/* &lt;![CDATA[ */!function(){try{var t=&quot;currentScript&quot;in document?document.currentScript:function(){for(var t=document.getElementsByTagName(&quot;script&quot;),e=t.length;e--;)if(t[e].getAttribute(&quot;cf-hash&quot;))return t[e]}();if(t&amp;&amp;t.previousSibling){var e,r,n,i,c=t.previousSibling,a=c.getAttribute(&quot;data-cfemail&quot;);if(a){for(e=&quot;&quot;,r=parseInt(a.substr(0,2),16),n=2;a.length-n;n+=2)i=parseInt(a.substr(n,2),16)^r,e+=String.fromCharCode(i);e=document.createTextNode(e),c.parentNode.replaceChild(e,c)}}}catch(u){}}();/* ]]&gt; */&lt;/script&gt;\nCodec ID                       : V_MPEG4/ISO/AVC\nDuration                       : 1h 33mn\nBit rate mode                  : Variable\nBit rate                       : 2 352 Kbps\nMaximum bit rate               : 3 600 Kbps\nWidth                          : 1 024 pixels\nHeight                         : 576 pixels\nDisplay aspect ratio           : 16:9\nFrame rate mode                : Constant\nFrame rate                     : 23.976 fps\nOriginal frame rate            : 24.000 fps\nBits/(Pixel*Frame)             : 0.166\nStream size                    : 1.53 GiB (93%)\nDefault                        : Yes\n\nAudio\nID                             : 2\nFormat                         : MPEG Audio\nCodec ID                       : A_MPEG/L3\nCodec ID/Hint                  : MP3\nDuration                       : 1h 33mn\nBit rate mode                  : Constant\nBit rate                       : 128 Kbps\nChannel(s)                     : 2 channels\nSampling rate                  : 44.1 KHz\nCompression mode               : Lossy\nStream size                    : 85.3 MiB (5%)\nWriting library                : LAME3.97","torrent":{"xt":"urn:btih:2d129cc5b630cf1e2716abc6996fe9a5d4a2f899","amp;dn":"Rise.Of.The.Guardians.2012+%28Pet+Legendi+SR.Sinhro%29.mkv","amp;tr":["udp%3A%2F%2Ftracker.openbittorrent.com%3A80","udp%3A%2F%2Fopen.demonii.com%3A1337","udp%3A%2F%2Ftracker.coppersurfer.tk%3A6969","udp%3A%2F%2Fexodus.desync.com%3A6969"],"infoHash":"2d129cc5b630cf1e2716abc6996fe9a5d4a2f899","infoHashBuffer":{"type":"Buffer","data":[45,18,156,197,182,48,207,30,39,22,171,198,153,111,233,165,212,162,248,153]},"announce":[],"urlList":[]}}